# xmcd CD database file
#
# Track frame offsets:
#	150
#	15009
#	30405
#	48340
#	67444
#	84593
#	102804
#	117583
#	133986
#	150280
#
# Disc length: 2215 seconds
#
# Revision: 2
# Processed by: cddbd v1.5.2PL0 Copyright (c) Steve Scherf et al.
# Submitted via: CDex 1.40PlusFr
#
DISCID=7908a50a
DTITLE=מושיק עפיה - חלום מתוק
DYEAR=2002
DGENRE=Vocal
TTITLE0=תפוס
TTITLE1=קצת אהבה
TTITLE2=חלום מתוק
TTITLE3=לא אוהבת
TTITLE4=ראיתי אותך
TTITLE5=ִמילים שבלב
TTITLE6=ִמבט שבעינייך
TTITLE7=רק לצידך
TTITLE8=אחת מהסרטים
TTITLE9=קח אותי איתך
EXTD=YEAR: 2002 ID3G: 28
EXTT0=
EXTT1=
EXTT2=
EXTT3=
EXTT4=
EXTT5=
EXTT6=
EXTT7=
EXTT8=
EXTT9=
PLAYORDER=
